{"title":"Bonnie McKee - American Girl [Music Video] 1080p [Sbyky]","uid":9423062,"size":103069155,"categoryP":"video","categoryS":"music_videos","magnet":"?xt=urn:btih:91599065bd5e643837e48c848fd5dae06414aa04&amp;dn=Bonnie+McKee+-+American+Girl+%5BMusic+Video%5D+1080p+%5BSbyky%5D&amp;tr=udp%3A%2F%2Ftracker.openbittorrent.com%3A80&amp;tr=udp%3A%2F%2Fopen.demonii.com%3A1337&amp;tr=udp%3A%2F%2Ftracker.coppersurfer.tk%3A6969&amp;tr=udp%3A%2F%2Fexodus.desync.com%3A6969","seeders":2,"leechers":0,"uploader":"Sbyky","files":1,"time":1388626185,"description":"\n\nGeneral\nComplete name                            : Bonnie McKee - American Girl [Music Video] 1080p [Sbyky].MP4\nFormat                                   : MPEG-4\nFormat profile                           : Base Media\nCodec ID                                 : isom\nFile size                                : 98.3 MiB\nDuration                                 : 3mn 48s\nOverall bit rate mode                    : Variable\nOverall bit rate                         : 3 604 Kbps\nEncoded date                             : UTC 2013-11-26 18:47:58\nTagged date                              : UTC 2013-11-26 18:47:58\n\nVideo\nID                                       : 1\nFormat                                   : AVC\nFormat/Info                              : Advanced Video Codec\nFormat profile                           : &lt;a class=&quot;__cf_email__&quot; href=&quot;/cdn-cgi/l/email-protection&quot; data-cfemail=&quot;0c44656b644c4038223c&quot;&gt;[email&amp;#160;protected]&lt;/a&gt;&lt;script cf-hash='f9e31' type=&quot;text/javascript&quot;&gt;\n/* &lt;![CDATA[ */!function(){try{var t=&quot;currentScript&quot;in document?document.currentScript:function(){for(var t=document.getElementsByTagName(&quot;script&quot;),e=t.length;e--;)if(t[e].getAttribute(&quot;cf-hash&quot;))return t[e]}();if(t&amp;&amp;t.previousSibling){var e,r,n,i,c=t.previousSibling,a=c.getAttribute(&quot;data-cfemail&quot;);if(a){for(e=&quot;&quot;,r=parseInt(a.substr(0,2),16),n=2;a.length-n;n+=2)i=parseInt(a.substr(n,2),16)^r,e+=String.fromCharCode(i);e=document.createTextNode(e),c.parentNode.replaceChild(e,c)}}}catch(u){}}();/* ]]&gt; */&lt;/script&gt;\nFormat settings, CABAC                   : Yes\nFormat settings, ReFrames                : 3 frames\nCodec ID                                 : avc1\nCodec ID/Info                            : Advanced Video Coding\nDuration                                 : 3mn 48s\nDuration_LastFrame                       : -42ms\nBit rate                                 : 3 476 Kbps\nWidth                                    : 1 920 pixels\nHeight                                   : 1 080 pixels\nDisplay aspect ratio                     : 16:9\nFrame rate mode                          : Constant\nFrame rate                               : 23.976 fps\nColor space                              : YUV\nChroma subsampling                       : 4:2:0\nBit depth                                : 8 bits\nScan type                                : Progressive\nBits/(Pixel*Frame)                       : 0.070\nStream size                              : 94.8 MiB (96%)\nEncoded date                             : UTC 2013-11-26 18:47:58\nTagged date                              : UTC 2013-11-26 18:47:58\n\nAudio\nID                                       : 2\nFormat                                   : AAC\nFormat/Info                              : Advanced Audio Codec\nFormat profile                           : LC\nCodec ID                                 : 40\nDuration                                 : 3mn 48s\nBit rate mode                            : Variable\nBit rate                                 : 126 Kbps\nChannel(s)                               : 2 channels\nChannel positions                        : Front: L R\nSampling rate                            : 44.1 KHz\nCompression mode                         : Lossy\nDelay relative to video                  : 42ms\nStream size                              : 3.43 MiB (3%)\nEncoded date                             : UTC 2013-11-26 18:46:47\nTagged date                              : UTC 2013-11-26 18:46:47\n\nShared By Sbyky\n","torrent":{"xt":"urn:btih:91599065bd5e643837e48c848fd5dae06414aa04","amp;dn":"Bonnie+McKee+-+American+Girl+%5BMusic+Video%5D+1080p+%5BSbyky%5D","amp;tr":["udp%3A%2F%2Ftracker.openbittorrent.com%3A80","udp%3A%2F%2Fopen.demonii.com%3A1337","udp%3A%2F%2Ftracker.coppersurfer.tk%3A6969","udp%3A%2F%2Fexodus.desync.com%3A6969"],"infoHash":"91599065bd5e643837e48c848fd5dae06414aa04","infoHashBuffer":{"type":"Buffer","data":[145,89,144,101,189,94,100,56,55,228,140,132,143,213,218,224,100,20,170,4]},"announce":[],"urlList":[]}}